<?xml version="1.0" encoding="UTF-8" standalone="no"?><!DOCTYPE svg PUBLIC "-//W3C//DTD SVG 1.1//EN" "http://www.w3.org/Graphics/SVG/1.1/DTD/svg11.dtd"><svg width="100%" height="100%" viewBox="0 0 198 198" version="1.1" xmlns="http://www.w3.org/2000/svg" xmlns:xlink="http://www.w3.org/1999/xlink" xml:space="preserve" xmlns:serif="http://www.serif.com/" style="fill-rule:evenodd;clip-rule:evenodd;stroke-linejoin:round;stroke-miterlimit:1.41421;"><g id="Layer_1-2"><path d="M55.84,64.92c-0.457,0.153 -0.935,0.23 -1.416,0.23c-2.453,0 -4.47,-2.017 -4.47,-4.47c0,-0.634 0.135,-1.262 0.396,-1.84l13.76,-30.43c0.722,-1.598 2.32,-2.629 4.073,-2.629c0.751,0 1.489,0.189 2.147,0.549l25.02,13.67l-13.35,-40l-23,0c-0.027,0 -0.053,0 -0.08,0c-17.511,0 -31.92,14.409 -31.92,31.92l0,106.9c0.001,3.43 0.555,6.837 1.64,10.09l14.2,42.61c1.289,3.86 4.93,6.478 9,6.47c5.193,-0.003 9.464,-4.277 9.464,-9.47c0,-0.513 -0.041,-1.024 -0.124,-1.53l-2.68,-15.99l-2.44,-14.65c-0.096,-0.575 -0.144,-1.157 -0.144,-1.74c0,-5.818 4.786,-10.607 10.604,-10.61l29.85,0l-27.88,-83.31l-12.65,4.23Z" style="fill:#084953;fill-rule:nonzero;"/><path d="M98.865,50.528l-12.612,4.22l12.885,38.512l12.613,-4.221l-12.886,-38.511Z" style="fill:#ff8e57;"/><path d="M139.08,0l-37.38,0l27.8,83.11l12.65,-4.23c0.467,-0.16 0.957,-0.242 1.45,-0.242c2.452,0 4.47,2.018 4.47,4.47c0,0.654 -0.143,1.3 -0.42,1.892l-13.76,30.43c-0.722,1.598 -2.32,2.629 -4.073,2.629c-0.751,0 -1.489,-0.189 -2.147,-0.549l-25,-13.69l13.44,40.18l23,0c17.499,-0.016 31.89,-14.421 31.89,-31.92l0,-80.16c0,-17.511 -14.409,-31.92 -31.92,-31.92Z" style="fill:#084953;fill-rule:nonzero;"/></g></svg>