<svg xmlns="http://www.w3.org/2000/svg" viewBox="0 0 144 198"><defs><style>.cls-1{fill:#084953;}.cls-2{fill:#ff8e57;}</style></defs><title>logo-icon</title><g id="Layer_2" data-name="Layer 2"><g id="Layer_1-2" data-name="Layer 1"><path class="cls-1" d="M28.84,64.92a4.47,4.47,0,0,1-5.49-6.08L37.11,28.41a4.47,4.47,0,0,1,6.22-2.08L68.35,40,55,0h-23A31.92,31.92,0,0,0,0,31.92v106.9a31.91,31.91,0,0,0,1.64,10.09l14.2,42.61a9.47,9.47,0,0,0,9,6.47h0a9.47,9.47,0,0,0,9.34-11L31.5,171l-2.44-14.65A10.61,10.61,0,0,1,39.52,144H69.37L41.49,60.69Z"/><rect class="cls-2" x="65.35" y="51.59" width="13.3" height="40.61" transform="translate(-19.09 26.56) rotate(-18.5)"/><path class="cls-1" d="M112.08,0H74.7l27.8,83.11,12.65-4.23A4.47,4.47,0,0,1,120.65,85l-13.76,30.43a4.47,4.47,0,0,1-6.22,2.08l-25-13.69L89.11,144h23A31.92,31.92,0,0,0,144,112.08V31.92A31.92,31.92,0,0,0,112.08,0Z"/></g></g></svg>